<svg width="1200" height="675" viewBox="0 0 1200 675" fill="none" xmlns="http://www.w3.org/2000/svg">
  <defs>
    <linearGradient id="bg" x1="0" y1="0" x2="1200" y2="675" gradientUnits="userSpaceOnUse">
      <stop stop-color="#071526"/>
      <stop offset="1" stop-color="#0B1E33"/>
    </linearGradient>
    <linearGradient id="accent" x1="0" y1="0" x2="1" y2="1">
      <stop stop-color="#3CD8A8"/>
      <stop offset="1" stop-color="#2AB4FF"/>
    </linearGradient>
  </defs>
  <rect width="1200" height="675" fill="url(#bg)"/>
  <g opacity="0.18">
    <rect x="72" y="72" width="1056" height="531" rx="24" stroke="#6BD5FF"/>
    <path d="M72 190H1128M72 308H1128M72 426H1128M320 72V603M568 72V603M816 72V603" stroke="#6BD5FF"/>
  </g>
  <rect x="120" y="150" width="430" height="375" rx="18" fill="#0D263F" stroke="#2AB4FF" stroke-opacity="0.35"/>
  <rect x="660" y="150" width="420" height="170" rx="18" fill="#0D263F" stroke="#3CD8A8" stroke-opacity="0.35"/>
  <rect x="660" y="355" width="420" height="170" rx="18" fill="#0D263F" stroke="#2AB4FF" stroke-opacity="0.35"/>
  <path d="M180 470C250 380 330 420 390 350C450 280 500 320 530 250" stroke="url(#accent)" stroke-width="8" stroke-linecap="round"/>
  <circle cx="530" cy="250" r="10" fill="#3CD8A8"/>
  <text x="160" y="228" fill="#A9E8FF" font-size="34" font-family="Segoe UI, sans-serif" font-weight="700">LINE CRM</text>
  <text x="160" y="268" fill="#7FC0D8" font-size="20" font-family="Segoe UI, sans-serif">Customer Workflow Dashboard</text>
  <text x="686" y="218" fill="#A9E8FF" font-size="24" font-family="Segoe UI, sans-serif" font-weight="600">Messaging Pipeline</text>
  <text x="686" y="422" fill="#A9E8FF" font-size="24" font-family="Segoe UI, sans-serif" font-weight="600">Sales Follow-up Queue</text>
</svg>
